# xmcd
#
# Track frame offsets:
#	150
#	14189
#	26918
#	36615
#	46843
#	59696
#	69924
#	82040
#	93865
#	106938
#	121153
#	135735
#	147247
#	160621
#	172798
#	182935
#	199166
#	212416
#	225633
#	237853
#	248468
#	262070
#	276358
#	288907
#
# Disc length: 4042 seconds
#
# Revision: 0
# Processed by: cddbd v1.4PL0 Copyright (c) Steve Scherf et al.
# Submitted via: EasyCDDAExtractor 4.6.9.1
#
DISCID=5a0fc818
DTITLE=Marcel Martel - MON JARDIN DE SOUVENIR
DYEAR=1900
DGENRE=
TTITLE0=Ma Biere Mon Costume De Bain
TTITLE1=Au Loin La-Bas
TTITLE2=Tu N'est Plus La 
TTITLE3=Un p'tit Coup De Coeur
TTITLE4=Mon Hirondelle
TTITLE5=Un Pas Sir La Terre Sainte
TTITLE6=C'est Du Bonheur
TTITLE7=Ton Coeur Est Froid
TTITLE8=Quand Nos Coeur Seront Unis
TTITLE9=Le P'tit indien
TTITLE10=Chante Avec moi
TTITLE11=J'ai Le Gout de Toi
TTITLE12=Si Je Pouvait Decider De ma Vie
TTITLE13=J'ai Pleurer en Ta Presence
TTITLE14=Dernier Cafe
TTITLE15=Premier Moment D'amour
TTITLE16=Hotel De La Province
TTITLE17=Amour Ardent
TTITLE18=Merci Mon Coeur
TTITLE19=Bonjour La Vie
TTITLE20=Au Coeur De Mes Chansons
TTITLE21=Ange De Nuit
TTITLE22=Quand Je T'ai Connu Belle
TTITLE23=Prend La Vie Du Bon Coter
EXTD=
EXTT0=
EXTT1=
EXTT2=
EXTT3=
EXTT4=
EXTT5=
EXTT6=
EXTT7=
EXTT8=
EXTT9=
EXTT10=
EXTT11=
EXTT12=
EXTT13=
EXTT14=
EXTT15=
EXTT16=
EXTT17=
EXTT18=
EXTT19=
EXTT20=
EXTT21=
EXTT22=
EXTT23=
PLAYORDER=
